# xmcd CD database file
#
# Track frame offsets:
#	150
#	13707
#	28561
#	44182
#	55647
#	69671
#	86229
#	102521
#	117426
#	136672
#	150670
#	166580
#
# Disc length: 2449 seconds
#
# Revision: 0
# Processed by: cddbd v1.5.2PL0 Copyright (c) Steve Scherf et al.
# Submitted via: CDex 1.51
#
DISCID=9b098f0c
DTITLE=get up and dance workshop nr 60 - get up and dance workshop nr 60
DYEAR=2008
DGENRE=Country
TTITLE0=Dance With Me
TTITLE1=Prison Break
TTITLE2=Talk To Me
TTITLE3=Thanks A Lot
TTITLE4=In This Life
TTITLE5=White Rose
TTITLE6=Blush
TTITLE7=No Return
TTITLE8=Love on Happiness
TTITLE9=Warriors
TTITLE10=Mix It up
TTITLE11=Lovers Prayer
EXTD=YEAR: 2008
EXTT0=
EXTT1=
EXTT2=
EXTT3=
EXTT4=
EXTT5=
EXTT6=
EXTT7=
EXTT8=
EXTT9=
EXTT10=
EXTT11=
PLAYORDER=
